# xmcd
#
# Track frame offsets:
# 150
# 14236
# 29827
# 49761
# 67170
# 82388
# 101737
# 120758
# 137871
# 155440
# 174179
# 193528
#
# Disc length: 2807 seconds
#
#
# Revision: 0
# Processed by: cddbd v1.5.1PL0 Copyright (c) Steve Scherf et al.
# Submitted via: FreeRIP 2.931 
#
DISCID=ac0af50c
DTITLE=Miranda Lambert - Kerosene
DYEAR=1900
DGENRE=Country
TTITLE0=Kerosene
TTITLE1=What About Georgia?
TTITLE2=Greyhound Bound for Nowhere
TTITLE3=New Strings
TTITLE4=I Can't Be Bothered
TTITLE5=Bring Me Down
TTITLE6=Me and Charlie Talking
TTITLE7=I Wanna Die
TTITLE8=Love Is Looking for You
TTITLE9=Mama, I'm Alright
TTITLE10=There's a Wall
TTITLE11=Love Your Memory
EXTD=
EXTT0=
EXTT1=
EXTT2=
EXTT3=
EXTT4=
EXTT5=
EXTT6=
EXTT7=
EXTT8=
EXTT9=
EXTT10=
EXTT11=
PLAYORDER=
